# AST/ASF file generated using VICON BodyLanguage
# -----------------------------------------------
:version 1.10
:name VICON
:units
  mass 1.0
  length 0.45
  angle deg
:documentation
   .ast/.asf automatically generated from VICON data using
   VICON BodyBuilder and BodyLanguage model FoxedUp or BRILLIANT.MOD
:root
   order TX TY TZ RX RY RZ
   axis XYZ
   position 0 0 0  
   orientation 0 0 0 
:bonedata
  begin
     id 1 
     name lhipjoint
     direction 0.722297 -0.617336 0.311742 
     length 2.6635 
     axis 0 0 0  XYZ
  end
  begin
     id 2 
     name lfemur
     direction 0.34202 -0.939693 0  
     length 7.39349  
     axis 0 0 20  XYZ
    dof rx ry rz
    limits (-160.0 20.0)
           (-70.0 70.0)
           (-60.0 70.0)
  end
  begin
     id 3 
     name ltibia
     direction 0.34202 -0.939693 0   
     length 7.36294   
     axis 0 0 20   XYZ
    dof rx
    limits (-10.0 170.0)
  end
  begin
     id 4 
     name lfoot
     direction 0.104879 -0.288152 0.951824   
     length 2.16981   
     axis -90 7.62852e-016 20   XYZ
    dof rx rz
    limits (-45.0 90.0)
           (-70.0 20.0)
  end
  begin
     id 5 
     name ltoes
     direction 1.53586e-011 -4.21895e-011 1   
     length 1.08218   
     axis -90 7.62852e-016 20   XYZ
    dof rx
    limits (-90.0 20.0)
  end
  begin
     id 6 
     name rhipjoint
     direction -0.75102 -0.589393 0.297631   
     length 2.78977  
     axis 0 0 0  XYZ 
  end
  begin
     id 7 
     name rfemur
     direction -0.34202 -0.939693 0   
     length 7.46076   
     axis 0 0 -20   XYZ
    dof rx ry rz
    limits (-160.0 20.0)
           (-70.0 70.0)
           (-70.0 60.0)
  end
  begin
     id 8 
     name rtibia
     direction -0.34202 -0.939693 0   
     length 7.31726   
     axis 0 0 -20   XYZ
    dof rx
    limits (-10.0 170.0)
 end
 begin
     id 9 
     name rfoot
     direction -0.107991 -0.296704 0.948844   
     length 2.09388  
     axis -90 -7.62852e-016 -20   XYZ
    dof rx rz
    limits (-45.0 90.0)
           (-20.0 70.0)
  end
  begin
     id 10 
     name rtoes
     direction -1.53559e-011 -4.21911e-011 1   
     length 1.04433   
     axis -90 -7.62852e-016 -20   XYZ
    dof rx
    limits (-90.0 20.0)
  end
  begin
     id 11 
     name lowerback
     direction 0.0165164 0.98272 0.184358   
     length 1.71896   
     axis 0 0 0   XYZ
    dof rx ry rz
    limits (-20.0 45.0)
           (-30.0 30.0)
           (-30.0 30.0)
  end
  begin
     id 12 
     name upperback
     direction -0.00887249 0.992297 0.123566   
     length 1.71504   
     axis 0 0 0   XYZ
    dof rx ry rz
    limits (-20.0 45.0)
           (-30.0 30.0)
           (-30.0 30.0)
  end
  begin
     id 13 
     name thorax
     direction -0.0157026 0.998908 0.0440032   
     length 1.77022   
     axis 0 0 0   XYZ
    dof rx ry rz
    limits (-20.0 45.0)
           (-30.0 30.0)
           (-30.0 30.0)
  end
  begin
     id 14 
     name lowerneck
     direction -0.0238856 0.998137 0.0561411   
     length 1.89341   
     axis 0 0 0   XYZ
    dof rx ry rz
    limits (-20.0 45.0)
           (-30.0 30.0)
           (-30.0 30.0)
  end
  begin
     id 15 
     name upperneck
     direction 0.0276574 0.952253 -0.304056   
     length 1.86999   
     axis 0 0 0   XYZ
    dof rx ry rz
    limits (-20.0 45.0)
           (-30.0 30.0)
           (-30.0 30.0)
  end
  begin
     id 16
     name head
     direction 0.00800083 0.994258 -0.106712  
     length 1.91492  
     axis 0 0 0   XYZ
    dof rx ry rz
    limits (-20.0 45.0)
           (-30.0 30.0)
           (-30.0 30.0)
  end
  begin
     id 17 
     name lclavicle
     direction 0.97203 0.225407 0.06595  
     length 3.34889  
     axis 0 0 0   XYZ
    dof ry rz
    limits (-20.0 10.0)
           (0.0 20.0)
  end
  begin
     id 18 
     name lhumerus
     direction 1 -4.48973e-011 2.20267e-027   
     length 4.85645   
     axis 180 -30 -90   XYZ
    dof rx ry rz
    limits (-60.0 90.0)
           (-90.0 90.0)
           (-90.0 90.0)
  end
  begin
     id 19
     name lradius
     direction 1 -4.4897e-011 4.60472e-027   
     length 2.79874   
     axis 180 -30 -90   XYZ
    dof rx
    limits (-10.0 170.0)
  end
  begin
     id 20
     name lwrist
     direction 1 -4.48952e-011 1.14928e-026   
     length 1.39937   
     axis -6.29373e-015 90 90   XYZ
    dof ry
    limits (-180.0 0.0)
 end
  begin
     id 21 
     name lhand
     direction 1 -4.48967e-011 2.29886e-026   
     length 0.573398   
     axis -1.46689e-014 90 90   XYZ
    dof rx rz
    limits (-90.0 90.0)
           (-45.0 45.0)
  end
  begin
     id 22 
     name lfingers
     direction 1 -4.48955e-011 4.59726e-026   
     length 0.462289   
     axis -2.93383e-014 90 90   XYZ
    dof rx
    limits (0.0 90.0)
  end
  begin
     id 23
     name lthumb
     direction 0.707107 -6.34866e-011 0.707107   
     length 0.663757   
     axis -90 45 5.69224e-014   XYZ
    dof rx rz
    limits (-45.0 45.0)
           (-45.0 45.0)
  end
  begin
     id 24 
     name rclavicle
     direction -0.981571 0.157346 0.108443   
     length 3.35257  
     axis 0 0 0   XYZ 
    dof ry rz
    limits (-10.0 20.0)
           (-20.0 0.0)
  end
  begin
     id 25 
     name rhumerus
     direction -1 -4.48967e-011 8.58308e-029  
     length 4.67018   
     axis 180 30 90   XYZ
    dof rx ry rz
    limits (-90.0 60.0)
           (-90.0 90.0)
           (-90.0 90.0)
  end
  begin
     id 26 
     name rradius
     direction -1 -4.48958e-011 4.52548e-027   
     length 2.65534   
     axis 180 30 90   XYZ
    dof rx
    limits (-10.0 170.0)
  end
  begin
     id 27 
     name rwrist
     direction -1 -4.48977e-011 1.14952e-026   
     length 1.32767   
     axis -6.29373e-015 -90 -90   XYZ
    dof ry
    limits (-180.0 0.0)
  end
  begin
     id 28
     name rhand
     direction -1 -4.48924e-011 2.29804e-026   
     length 0.594069   
     axis -1.46689e-014 -90 -90   XYZ
    dof rx rz
    limits (-90.0 90.0)
           (-45.0 45.0)
  end
  begin
     id 29
     name rfingers
     direction -1 -4.48998e-011 4.59888e-026   
     length 0.478954   
     axis -2.93383e-014 -90 -90   XYZ
    dof rx
    limits (0.0 90.0)
  end
  begin
     id 30
     name rthumb
     direction -0.707107 -6.34933e-011 0.707107   
     length 0.687685   
     axis -90 -45 -5.69224e-014   XYZ
    dof rx rz
    limits (-45.0 45.0)
           (-45.0 45.0)
  end
:hierarchy
  begin
    root lhipjoint rhipjoint lowerback
    lhipjoint lfemur
    lfemur ltibia
    ltibia lfoot
    lfoot ltoes
    rhipjoint rfemur
    rfemur rtibia
    rtibia rfoot
    rfoot rtoes
    lowerback upperback
    upperback thorax
    thorax lowerneck lclavicle rclavicle
    lowerneck upperneck
    upperneck head
    lclavicle lhumerus
    lhumerus lradius
    lradius lwrist
    lwrist lhand lthumb
    lhand lfingers
    rclavicle rhumerus
    rhumerus rradius
    rradius rwrist
    rwrist rhand rthumb
    rhand rfingers
  end

#!OML:ASF E:\pregnant2\Project 1\Capture day 1\Session 1\pregnant2.ASF
:FULLY-SPECIFIED
:DEGREES
163
root -6.09227 17.129 11.1009 27.8971 -6.27701 -4.72987
lowerback -14.508 0.145938 5.60602
upperback -14.6238 -0.296069 2.17529
thorax -7.66838 -0.582369 -0.813934
lowerneck -12.5803 -0.0984489 -1.86245
upperneck 48.1659 1.20997 -2.10042
head 22.0992 -0.283889 -0.565384
rclavicle -2.98177e-015 -2.84262e-014
rhumerus -54.1088 -9.97204 -63.5705
rradius 25.8191
rwrist 16.8022
rhand -12.9886 -13.5601
rfingers 7.12502
rthumb 13.1042 -43.1284
lclavicle -2.98177e-015 -2.84262e-014
lhumerus -48.1152 8.58292 75.3523
lradius 27.5099
lwrist -6.35295
lhand -12.9077 29.6672
lfingers 7.12502
lthumb 13.1822 59.2305
rfemur -49.5958 2.53866 27.8488
rtibia 30.1139
rfoot -7.17102 -7.59298
rtoes 5.10566
lfemur -32.4413 -0.737037 -20.0308
ltibia 50.6302
lfoot -15.7133 16.836
ltoes -6.67763
164
root -6.13042 17.1429 11.1831 27.8541 -5.97791 -4.85278
lowerback -14.4701 0.160585 5.70542
upperback -14.5679 -0.283429 2.11879
thorax -7.62683 -0.584938 -0.929781
lowerneck -12.62 -0.170813 -1.92679
upperneck 48.1374 1.01253 -1.87776
head 22.0811 -0.340179 -0.472333
rclavicle -3.94091e-014 3.77691e-014
rhumerus -53.7183 -9.88536 -64.2385
rradius 25.9959
rwrist 16.654
rhand -13.1105 -13.6835
rfingers 7.12502
rthumb 12.9867 -43.2593
lclavicle -3.94091e-014 3.77691e-014
lhumerus -48.1547 8.40433 75.2153
lradius 27.4146
lwrist -7.30658
lhand -12.3824 29.3668
lfingers 7.12502
lthumb 13.6885 58.8966
rfemur -49.0626 2.4727 28.1383
rtibia 29.91
rfoot -7.43339 -7.67956
rtoes 5.21072
lfemur -33.3496 -0.152099 -19.7952
ltibia 52.4173
lfoot -14.0812 16.1421
ltoes -5.34845
165
root -6.16707 17.1554 11.2643 27.799 -5.68424 -4.98502
lowerback -14.4235 0.187806 5.82942
upperback -14.5052 -0.255885 2.05772
thorax -7.58192 -0.582144 -1.06311
lowerneck -12.653 -0.248681 -1.99836
upperneck 48.1047 0.814073 -1.66564
head 22.0586 -0.399347 -0.383853
rclavicle -3.10104e-014 -8.74653e-015
rhumerus -53.3257 -9.72705 -64.967
rradius 26.2393
rwrist 16.4519
rhand -13.1931 -13.74
rfingers 7.12502
rthumb 12.907 -43.3208
lclavicle -3.10104e-014 -8.74653e-015
lhumerus -48.1901 8.14306 75.1475
lradius 27.4104
lwrist -8.15359
lhand -11.7638 28.9515
lfingers 7.12502
lthumb 14.2846 58.4402
rfemur -48.525 2.35924 28.4655
rtibia 29.708
rfoot -7.69242 -7.71169
rtoes 5.27614
lfemur -34.2847 0.42952 -19.5634
ltibia 54.1872
lfoot -12.393 15.5271
ltoes -3.57752
166
root -6.20197 17.1664 11.3443 27.738 -5.41009 -5.12929
lowerback -14.3671 0.226874 5.97135
upperback -14.4391 -0.213379 2.00016
thorax -7.53804 -0.573062 -1.20147
lowerneck -12.2483 -0.322163 -2.12725
upperneck 48.025 0.602702 -1.42946
head 21.647 -0.463262 -0.292123
rclavicle -6.70898e-015 -3.20043e-014
rhumerus -52.9229 -9.49008 -65.7406
rradius 26.542
rwrist 16.1966
rhand -13.2327 -13.7189
rfingers 7.12502
rthumb 12.8688 -43.3022
lclavicle -6.70898e-015 -3.20043e-014
lhumerus -48.2276 7.83035 75.141
lradius 27.4969
lwrist -8.84375
lhand -11.0708 28.4669
lfingers 7.12502
lthumb 14.9523 57.9071
rfemur -47.9936 2.21981 28.8201
rtibia 29.5142
rfoot -7.94127 -7.69842
rtoes 5.29222
lfemur -35.2361 0.993416 -19.341
ltibia 55.9175
lfoot -10.7765 15.0761
ltoes -1.71697
167
root -6.23503 17.1755 11.4229 27.6751 -5.1662 -5.27718
lowerback -14.2991 0.276472 6.11879
upperback -14.373 -0.156428 1.94474
thorax -7.4995 -0.557104 -1.3394
lowerneck -12.2635 -0.398996 -2.20581
upperneck 47.9845 0.427674 -1.25594
head 21.6175 -0.519546 -0.219181
rclavicle -4.94477e-015 -2.37548e-014
rhumerus -52.5202 -9.12528 -66.5953
rradius 26.9391
rwrist 15.8255
rhand -13.2283 -13.6492
rfingers 7.12502
rthumb 12.8731 -43.2322
lclavicle -4.94477e-015 -2.37548e-014
lhumerus -48.2685 7.48852 75.1815
lradius 27.6611
lwrist -9.35701
lhand -10.3321 27.9417
lfingers 7.12502
lthumb 15.6638 57.3277
rfemur -47.4823 2.06535 29.1855
rtibia 29.3416
rfoot -8.18142 -7.65021
rtoes 5.26582
lfemur -36.195 1.54166 -19.1452
ltibia 57.5896
lfoot -9.37971 14.8334
ltoes 0.00628757
